{"accessors" : [{"bufferView" : 0, "byteOffset" : 0, "componentType" : 5126, "normalized" : false, "count" : 22, "type" : "SCALAR", "max" : [0.7000000000000001], "min" : [0]}, {"bufferView" : 0, "byteOffset" : 88, "componentType" : 5126, "normalized" : false, "count" : 22, "type" : "VEC3", "max" : [3.7287440299987793, 101.36074829101562, 291.778076171875], "min" : [-0.3044295310974121, 91.63800048828125, 1.549180507659912]}], "animations" : [{"channels" : [{"sampler" : 0, "target" : {"node" : -1, "path" : "translation"}}], "samplers" : [{"input" : 0, "interpolation" : "CUBICSPLINE", "output" : 1}], "name" : "mixamo.com"}], "asset" : {"generator" : "Aspose.3D 24.2.0", "version" : "2.0"}, "buffers" : [{"uri" : "buffer.bin", "byteLength" : 356}], "bufferViews" : [{"buffer" : 0, "byteOffset" : 0, "byteLength" : 352}], "scene" : 0, "scenes" : [{}]}